<svg version="1.1" xmlns="http://www.w3.org/2000/svg" xmlns:xlink="http://www.w3.org/1999/xlink" width="64px" height="64px" viewBox="0,0,256,256">
    <g fill="#fa5252" fill-rule="nonzero" stroke="none" stroke-width="1" stroke-linecap="butt" stroke-linejoin="miter" stroke-miterlimit="10" stroke-dasharray="" stroke-dashoffset="0" font-family="none" font-weight="none" font-size="none" text-anchor="none" style="mix-blend-mode: normal">
        <g transform="scale(4,4)">
            <path d="M15.3457,12.07031c-2.262,0 -4.16127,0.39922 -5.69727,1.19922c-1.536,0.8 -2.69456,1.96791 -3.47656,3.50391c-0.781,1.536 -1.17187,3.41758 -1.17187,5.64258v7.05664c0,2.225 0.39183,4.10462 1.17383,5.64063c0.782,1.536 1.93861,2.70391 3.47461,3.50391c1.536,0.8 3.23605,1.20117 5.49805,1.20117v1v4.49023c0,0.956 0.23413,1.71439 0.70313,2.27539c0.469,0.561 1.136,0.8418 2,0.8418c0.607,0 1.1583,-0.16142 1.6543,-0.48242c0.497,-0.322 1.12295,-0.82291 1.87695,-1.50391l7.39258,-6.62109h5.9668c2.262,0 4.16127,-0.40117 5.69727,-1.20117c1.536,-0.8 2.69261,-1.96791 3.47461,-3.50391c0.781,-1.536 1.17383,-3.41563 1.17383,-5.64062v-7.05664c0,-2.226 -0.39183,-4.10658 -1.17383,-5.64258c-0.782,-1.536 -1.93861,-2.70391 -3.47461,-3.50391c-1.536,-0.8 -3.43527,-1.19922 -5.69727,-1.19922zM15.3457,16.07031h19.39453c2.226,0 3.84542,0.52794 4.85742,1.58594c1.011,1.058 1.51563,2.64281 1.51563,4.75781v7.05664c0,2.115 -0.50362,3.70644 -1.51562,4.77344c-1.012,1.067 -2.63242,1.59961 -4.85742,1.59961h-6.18555c-0.662,0 -1.20124,0.06903 -1.61523,0.20703c-0.414,0.138 -0.8422,0.44583 -1.2832,0.92383l-6.78516,6.92383v-6.20508c0,-0.681 -0.14273,-1.15955 -0.42773,-1.43555c-0.285,-0.276 -0.75988,-0.41406 -1.42187,-0.41406h-1.67578c-2.226,0 -3.84347,-0.53261 -4.85547,-1.59961c-1.011,-1.067 -1.51758,-2.65844 -1.51758,-4.77344v-7.05664c0,-2.115 0.50558,-3.69981 1.51758,-4.75781c1.012,-1.057 2.63047,-1.58594 4.85547,-1.58594zM47.93945,20.07031c0.1,0.75 0.15039,1.52961 0.15039,2.34961v1.65039h0.30078c2.23,0 3.84938,0.52984 4.85938,1.58984c1.01,1.05 1.51953,2.63977 1.51953,4.75977v7.23047c0,2.12 -0.50953,3.70953 -1.51953,4.76953c-1.01,1.07 -2.62938,1.59961 -4.85937,1.59961h-1.66992c-0.66,0 -1.13992,0.13992 -1.41992,0.41992c-0.29,0.27 -0.43164,0.74969 -0.43164,1.42969v6.21094l-6.78906,-6.91992c-0.44,-0.48 -0.8693,-0.78969 -1.2793,-0.92969c-0.41,-0.14 -0.95133,-0.21094 -1.61133,-0.21094c-6.701,0 -6.29639,0.00523 -6.40039,-0.00977l-3.84961,3.43945c0.821,0.255 2.12555,0.55078 4.06055,0.55078h5.96094l7.39844,6.61914c0.75,0.68 1.38109,1.18 1.87109,1.5c0.5,0.32 1.05016,0.48047 1.66016,0.48047c0.86,0 1.53,-0.27984 2,-0.83984c0.47,-0.56 0.69922,-1.31953 0.69922,-2.26953v-5.49023c2.27,0 3.96,-0.39922 5.5,-1.19922c1.54,-0.8 2.69047,-1.97172 3.48047,-3.51172c0.78,-1.53 1.16992,-3.40867 1.16992,-5.63867v-7.23047c0,-2.23 -0.38992,-4.11039 -1.16992,-5.65039c-0.79,-1.53 -1.94047,-2.7 -3.48047,-3.5c-1.54,-0.8 -3.42922,-1.19922 -5.69922,-1.19922z"></path>
        </g>
    </g>
</svg>
