<svg version="1.1" xmlns="http://www.w3.org/2000/svg" xmlns:xlink="http://www.w3.org/1999/xlink" width="64px" height="64px" viewBox="0,0,256,256">
    <g fill="#ff6347" fill-rule="nonzero" stroke="none" stroke-width="1" stroke-linecap="butt" stroke-linejoin="miter" stroke-miterlimit="10" stroke-dasharray="" stroke-dashoffset="0" font-family="none" font-weight="none" font-size="none" text-anchor="none" style="mix-blend-mode: normal">
        <g transform="scale(4,4)">
            <path d="M14.06836,14.00195c-2.089,0 -3.71767,0.60812 -4.88867,1.82813c-1.171,1.22 -1.75781,3.06148 -1.75781,5.52148v21.29883c0,2.46 0.626,4.29953 1.875,5.51953c1.25,1.22 3.1128,1.83008 5.5918,1.83008h35.04297c2.088,0 3.71767,-0.61008 4.88867,-1.83008c1.171,-1.22 1.75586,-3.05953 1.75586,-5.51953v-21.29883c0,-2.46 -0.62405,-4.30148 -1.87305,-5.52148c-1.25,-1.22 -3.11475,-1.82812 -5.59375,-1.82812zM14.71484,17.98438h34.54297c0.19178,0 0.36702,0.02032 0.54297,0.03906l-15.0332,14.88477c-0.507,0.488 -0.98092,0.84998 -1.41992,1.08398c-0.439,0.234 -0.88303,0.35156 -1.33203,0.35156c-0.469,0 -0.92428,-0.11756 -1.36328,-0.35156c-0.439,-0.234 -0.91192,-0.59598 -1.41992,-1.08398l-15.0332,-14.88672c0.16755,-0.0169 0.3335,-0.03711 0.51563,-0.03711zM11.47852,20.70313l11.42773,11.26758l-11.42383,11.37891c-0.02819,-0.22112 -0.04687,-0.45081 -0.04687,-0.69922v-21.32812c0,-0.21931 0.02018,-0.42102 0.04297,-0.61914zM52.52344,20.72461c0.02307,0.20081 0.04297,0.4042 0.04297,0.62695v21.32813c0,0.24557 -0.0178,0.47436 -0.04687,0.69336l-11.42383,-11.40039zM38.37891,34.64648l11.36133,11.33789c-0.15787,0.01479 -0.31207,0.0332 -0.48242,0.0332h-34.54297c-0.15192,0 -0.28793,-0.01951 -0.42969,-0.03125l11.34961,-11.32617l1.37305,1.35352c0.839,0.82 1.66828,1.41416 2.48828,1.78516c0.82,0.371 1.66053,0.55664 2.51953,0.55664c0.859,0 1.69291,-0.18564 2.50391,-0.55664c0.81,-0.371 1.63366,-0.96711 2.47266,-1.78711z"></path>
        </g>
    </g>
</svg>
