<svg version="1.1" xmlns="http://www.w3.org/2000/svg" xmlns:xlink="http://www.w3.org/1999/xlink" width="50px" height="50px" viewBox="0,0,256,256">
    <g fill="#3F8A8C" fill-rule="nonzero" stroke="none" stroke-width="1" stroke-linecap="butt" stroke-linejoin="miter" stroke-miterlimit="10" stroke-dasharray="" stroke-dashoffset="0" font-family="none" font-weight="none" font-size="none" text-anchor="none" style="mix-blend-mode: normal">
        <g transform="scale(5.12,5.12)">
            <path d="M17,2c-3.30078,0 -6,2.69922 -6,6c0,1.98438 0.97656,3.75 2.46875,4.84375c-0.80078,0.40234 -1.53125,0.92188 -2.15625,1.5625c-0.72656,-0.25781 -1.5,-0.40625 -2.3125,-0.40625c-3.85547,0 -7,3.14453 -7,7c0,2.44922 1.26953,4.625 3.1875,5.875c-3.05469,1.44531 -5.1875,4.53906 -5.1875,8.125v4.5c-0.00391,0.32031 0.14844,0.62109 0.40625,0.8125c0,0 0.70703,0.5 2.0625,0.90625c1.35547,0.40625 3.44922,0.78125 6.53125,0.78125c3.08203,0 5.17578,-0.375 6.53125,-0.78125c0.17578,-0.05078 0.31641,-0.10156 0.46875,-0.15625v4.4375c-0.00391,0.32031 0.14844,0.62109 0.40625,0.8125c0,0 0.70703,0.5 2.0625,0.90625c1.35547,0.40625 3.44922,0.78125 6.53125,0.78125c3.08203,0 5.17578,-0.375 6.53125,-0.78125c1.35547,-0.40625 2.0625,-0.90625 2.0625,-0.90625c0.25781,-0.19141 0.41016,-0.49219 0.40625,-0.8125v-4.4375c0.15234,0.05469 0.29297,0.10547 0.46875,0.15625c1.35547,0.40625 3.44922,0.78125 6.53125,0.78125c3.08203,0 5.17578,-0.375 6.53125,-0.78125c1.35547,-0.40625 2.0625,-0.90625 2.0625,-0.90625c0.25781,-0.19141 0.41016,-0.49219 0.40625,-0.8125v-4.5c0,-3.58594 -2.13281,-6.67969 -5.1875,-8.125c1.91797,-1.25 3.1875,-3.42578 3.1875,-5.875c0,-3.85547 -3.14453,-7 -7,-7c-0.87109,0 -1.69922,0.17578 -2.46875,0.46875c-0.62891,-0.66016 -1.37109,-1.21094 -2.1875,-1.625c1.49219,-1.09375 2.46875,-2.85937 2.46875,-4.84375c0,-3.30078 -2.69922,-6 -6,-6c-3.30078,0 -6,2.69922 -6,6c0,1.98438 0.97656,3.75 2.46875,4.84375c-2.29687,1.13281 -3.97656,3.3125 -4.375,5.9375c-0.39844,-2.62891 -2.07422,-4.80859 -4.375,-5.9375c1.49219,-1.09375 2.46875,-2.85937 2.46875,-4.84375c0,-3.30078 -2.69922,-6 -6,-6zM17,4c2.22266,0 4,1.77734 4,4c0,2.22266 -1.77734,4 -4,4c-2.22266,0 -4,-1.77734 -4,-4c0,-2.22266 1.77734,-4 4,-4zM32.8125,4c2.22266,0 4,1.77734 4,4c0,2.22266 -1.77734,4 -4,4c-2.22266,0 -4,-1.77734 -4,-4c0,-2.22266 1.77734,-4 4,-4zM17,14c3.37109,0 6,2.62891 6,6v0.3125c-2.875,0.87109 -5,3.53516 -5,6.6875c0,2.44922 1.26953,4.625 3.1875,5.875c-1.25391,0.59375 -2.32812,1.46484 -3.1875,2.53125v-0.40625c0,-3.58594 -2.13281,-6.67969 -5.1875,-8.125c1.91797,-1.25 3.1875,-3.42578 3.1875,-5.875c0,-2.28125 -1.11328,-4.3125 -2.8125,-5.59375c1.03906,-0.88672 2.32813,-1.40625 3.8125,-1.40625zM32.8125,14c1.52734,0 2.85547,0.53516 3.90625,1.46875c-1.64844,1.28125 -2.71875,3.29297 -2.71875,5.53125c0,2.44922 1.26953,4.625 3.1875,5.875c-3.05469,1.44531 -5.1875,4.53906 -5.1875,8.125v0.40625c-0.85937,-1.06641 -1.93359,-1.9375 -3.1875,-2.53125c1.91797,-1.25 3.1875,-3.42578 3.1875,-5.875c0,-3.22266 -2.21094,-5.94531 -5.1875,-6.75v-0.25c0,-3.37109 2.62891,-6 6,-6zM9,16c0.77734,0 1.5,0.1875 2.15625,0.5c1.67969,0.80469 2.84375,2.50391 2.84375,4.5c0,2.77344 -2.22656,5 -5,5c-2.77344,0 -5,-2.22656 -5,-5c0,-2.77344 2.22656,-5 5,-5zM41,16c2.77344,0 5,2.22656 5,5c0,2.77344 -2.22656,5 -5,5c-2.77344,0 -5,-2.22656 -5,-5c0,-1.84766 0.98828,-3.44531 2.46875,-4.3125c0.00781,-0.00391 0.02344,0.00391 0.03125,0c0.14844,-0.03125 0.28516,-0.09375 0.40625,-0.1875c0.03516,-0.01562 0.05859,-0.04687 0.09375,-0.0625c0.01953,-0.00781 0.04297,-0.01953 0.0625,-0.03125c0.59766,-0.25391 1.24609,-0.40625 1.9375,-0.40625zM25,22c2.77344,0 5,2.22656 5,5c0,2.77344 -2.22656,5 -5,5c-2.77344,0 -5,-2.22656 -5,-5c0,-2.77344 2.22656,-5 5,-5zM9,28c3.85547,0 7,3.14453 7,7v3.84375c-0.14844,0.08984 -0.20703,0.19141 -1.03125,0.4375c-1.14453,0.34375 -3.05078,0.71875 -5.96875,0.71875c-2.91797,0 -4.82422,-0.375 -5.96875,-0.71875c-0.82422,-0.24609 -0.88281,-0.34766 -1.03125,-0.4375v-3.84375c0,-3.85547 3.14453,-7 7,-7zM41,28c3.85547,0 7,3.14453 7,7v3.84375c-0.14844,0.08984 -0.20703,0.19141 -1.03125,0.4375c-1.14453,0.34375 -3.05078,0.71875 -5.96875,0.71875c-2.91797,0 -4.82422,-0.375 -5.96875,-0.71875c-0.82422,-0.24609 -0.88281,-0.34766 -1.03125,-0.4375v-3.84375c0,-3.85547 3.14453,-7 7,-7zM25,34c3.85547,0 7,3.14453 7,7v3.84375c-0.14844,0.08984 -0.20703,0.19141 -1.03125,0.4375c-1.14453,0.34375 -3.05078,0.71875 -5.96875,0.71875c-2.91797,0 -4.82422,-0.375 -5.96875,-0.71875c-0.82422,-0.24609 -0.88281,-0.34766 -1.03125,-0.4375v-3.84375c0,-3.85547 3.14453,-7 7,-7z"></path>
        </g>
    </g>
</svg>
