<svg version="1.1" xmlns="http://www.w3.org/2000/svg" xmlns:xlink="http://www.w3.org/1999/xlink" width="50px" height="50px" viewBox="0,0,256,256">
    <g fill="#3F8A8C" fill-rule="nonzero" stroke="none" stroke-width="1" stroke-linecap="butt" stroke-linejoin="miter" stroke-miterlimit="10" stroke-dasharray="" stroke-dashoffset="0" font-family="none" font-weight="none" font-size="none" text-anchor="none" style="mix-blend-mode: normal">
        <g transform="scale(5.12,5.12)">
            <path d="M28.99219,9c-5.065,0 -9.36086,2.6725 -11.50586,7.0625c-1.099,-0.691 -2.4237,-1.0625 -3.8457,-1.0625c-3.637,0 -6.41567,2.76572 -6.63867,6.51172c-4.462,1.509 -7.00195,5.04936 -7.00195,9.81836c0,5.332 4.33792,9.66992 9.66992,9.66992h15.33008c-0.271,-0.423 -0.5135,-0.88758 -0.6875,-1.39258c-0.155,-0.18 -0.29573,-0.38442 -0.42773,-0.60742h-14.21484c-4.23,0 -7.66992,-3.44092 -7.66992,-7.66992c0,-5.555 3.92658,-7.46823 6.26758,-8.11523l0.75977,-0.20898l-0.04102,-1.00586c0,-2.851 2.0023,-5 4.6543,-5c1.408,0 2.66597,0.48333 3.54297,1.36133l1.10352,1.10547l0.54102,-1.46289c1.6,-4.319 5.49406,-7.00391 10.16406,-7.00391c6.172,0 11.00781,4.832 11.00781,11c0,0.414 -0.0307,0.85381 -0.0957,1.38281l-0.08008,1.11914h1.13086c3.49,0 6.67972,3.24484 7.01172,6.96484c0.206,1.094 0.20166,2.28495 -0.02734,3.50195c0.169,0.562 0.2283,1.18498 0.1543,1.83398c-0.044,0.386 -0.1247,0.72969 -0.2207,1.05469c1.324,-1.555 2.12695,-3.56181 2.12695,-5.75781c0,-4.729 -3.61362,-8.92048 -8.01562,-9.52148c0.011,-0.199 0.01563,-0.39013 0.01563,-0.57812c0,-7.29 -5.71381,-13 -13.00781,-13zM31.53125,27c-2.86465,0 -4.92969,0.94806 -5.95508,2.63477c-0.9392,1.54493 -0.88546,3.49106 -0.375,5.50391c-0.23757,0.37684 -0.39656,0.82945 -0.32812,1.41992c0.07869,0.68099 0.25585,1.20668 0.5625,1.61523c0.0999,0.1331 0.26477,0.13018 0.39063,0.22852c0.12648,0.717 0.41837,1.34691 0.76953,1.82617c0.21924,0.29922 0.44599,0.55345 0.65625,0.75781c0.03484,0.03386 0.0713,0.05134 0.10352,0.08203v1.39258c-0.11113,0.25521 -0.31534,0.47942 -0.79687,0.74414c-0.51694,0.28418 -1.25011,0.55904 -2.02734,0.92773c-0.77724,0.36869 -1.61539,0.84199 -2.29492,1.61523c-0.67953,0.77324 -1.15503,1.84852 -1.23242,3.19336c-0.01557,0.27488 0.08288,0.54402 0.27212,0.74398c0.18925,0.19997 0.45256,0.31307 0.72788,0.31266h17.92578c0.02341,0.00148 0.04686,0.00213 0.07031,0.00195h9c0.27498,-0.00012 0.53778,-0.11346 0.7266,-0.31337c0.18882,-0.1999 0.287,-0.46873 0.27145,-0.74327c-0.0774,-1.34483 -0.55295,-2.41998 -1.23242,-3.19336c-0.67947,-0.77338 -1.5157,-1.24834 -2.29297,-1.61719c-0.77727,-0.36884 -1.51225,-0.64357 -2.0293,-0.92773c-0.48282,-0.26535 -0.68622,-0.49062 -0.79687,-0.74609v-1.40039c0.03396,-0.03369 0.07618,-0.05443 0.11328,-0.0918c0.20678,-0.20825 0.42848,-0.46476 0.64258,-0.76367c0.3187,-0.44496 0.49869,-1.08114 0.64258,-1.7168c0.16855,-0.11251 0.37353,-0.12187 0.50195,-0.29297c0.30695,-0.40895 0.4844,-0.93608 0.5625,-1.61719c0.05067,-0.44355 0.0064,-0.85354 -0.14648,-1.22266c-0.02847,-0.06875 -0.13874,-0.10011 -0.17578,-0.16797c0.37268,-1.4231 0.48496,-2.97028 -0.06445,-4.35937c-0.54638,-1.38143 -1.94373,-2.35592 -3.79102,-2.5918l-0.58984,-0.81836c-0.18766,-0.26083 -0.48922,-0.41561 -0.81055,-0.41602c-2.45733,0 -4.31871,0.69308 -5.44922,1.96289c-0.60745,-0.36651 -1.33075,-0.62386 -2.15039,-0.72852l-0.58984,-0.81836c-0.18766,-0.26083 -0.48922,-0.41561 -0.81055,-0.41602zM40.07031,29.07422l0.4043,0.56055c0.18806,0.26139 0.49049,0.41624 0.8125,0.41602c1.61764,0 2.20815,0.58123 2.57617,1.51172c0.36803,0.93048 0.31576,2.3314 -0.07422,3.54297c-0.1268,0.3946 0.00293,0.82652 0.32617,1.08594c0.0062,0.0314 0.0184,0.04805 0.00586,0.1582c-0.04717,0.41134 -0.13373,0.55421 -0.16016,0.5957c-0.41376,0.13239 -0.69472,0.51675 -0.69531,0.95117c0,0.2415 -0.19647,0.73516 -0.48828,1.14258c-0.14591,0.20371 -0.30753,0.38863 -0.4375,0.51953c-0.12997,0.1309 -0.28278,0.22374 -0.17383,0.16406c-0.32032,0.17551 -0.51949,0.5117 -0.51953,0.87695v2.14258c0.00016,0.11451 0.01997,0.22814 0.05859,0.33594c0.32755,0.91898 1.06275,1.48725 1.77539,1.87891c0.71264,0.39165 1.46378,0.66402 2.13477,0.98242c0.67098,0.31841 1.24523,0.66997 1.64844,1.12891c0.18888,0.21502 0.22156,0.64014 0.3457,0.93164h-6.73633c-0.19776,-0.91266 -0.59278,-1.669 -1.10547,-2.25195c-0.6501,-0.7392 -1.44342,-1.20078 -2.19141,-1.5625c0.30211,-0.30105 0.55977,-0.6611 0.71875,-1.10742c0.03862,-0.1078 0.05844,-0.22143 0.05859,-0.33594v-2.14258c-0.00011,-0.36679 -0.20099,-0.70409 -0.52344,-0.87891c0.09157,0.04962 -0.0567,-0.04083 -0.1875,-0.16797c-0.1308,-0.12714 -0.29149,-0.30463 -0.4375,-0.50391c-0.28004,-0.3822 -0.47075,-0.8355 -0.48633,-1.12891c0.20182,-0.36425 0.32871,-0.80379 0.39063,-1.34375c0.05067,-0.44355 0.0064,-0.85354 -0.14648,-1.22266c-0.02847,-0.06875 -0.13874,-0.10011 -0.17578,-0.16797c0.37268,-1.4231 0.48496,-2.97028 -0.06445,-4.35937c-0.06109,-0.15446 -0.13694,-0.30149 -0.21875,-0.44531c0.60603,-0.73112 1.73208,-1.21625 3.56641,-1.30664zM31.07227,29.07617l0.40234,0.55859c0.18806,0.26139 0.49049,0.41624 0.8125,0.41602c1.61764,0 2.20815,0.58123 2.57617,1.51172c0.36803,0.93048 0.31576,2.3314 -0.07422,3.54297c-0.1268,0.3946 0.00293,0.82652 0.32617,1.08594c0.0062,0.0314 0.0184,0.04805 0.00586,0.1582c-0.04717,0.41134 -0.13373,0.55421 -0.16016,0.5957c-0.41376,0.13239 -0.69472,0.51675 -0.69531,0.95117c0,0.2415 -0.19647,0.73516 -0.48828,1.14258c-0.14591,0.20371 -0.30753,0.38863 -0.4375,0.51953c-0.12997,0.1309 -0.28278,0.22374 -0.17383,0.16406c-0.32032,0.17551 -0.51949,0.5117 -0.51953,0.87695v2.14258c0.00016,0.11451 0.01997,0.22814 0.05859,0.33594c0.32755,0.91898 1.06268,1.48726 1.77539,1.87891c0.71271,0.39164 1.46354,0.66404 2.13477,0.98242c0.67122,0.31838 1.24674,0.66994 1.65039,1.12891c0.18877,0.21464 0.22143,0.63896 0.3457,0.92969h-15.2168c0.12403,-0.29055 0.15528,-0.71522 0.34375,-0.92969c0.40316,-0.45876 0.97742,-0.8106 1.64844,-1.12891c0.67102,-0.31831 1.42202,-0.5906 2.13477,-0.98242c0.71275,-0.39182 1.44994,-0.96153 1.77734,-1.88086c0.03795,-0.10792 0.05711,-0.22154 0.05664,-0.33594v-2.14062c-0.00011,-0.36679 -0.20099,-0.70409 -0.52344,-0.87891c0.09157,0.04962 -0.05474,-0.04083 -0.18555,-0.16797c-0.1308,-0.12714 -0.29149,-0.30658 -0.4375,-0.50586c-0.29202,-0.39856 -0.49219,-0.87712 -0.49219,-1.16797c-0.00059,-0.43442 -0.28156,-0.81878 -0.69531,-0.95117c-0.02665,-0.04179 -0.11455,-0.1861 -0.16211,-0.59766c0,-0.00065 0,-0.0013 0,-0.00195c-0.01032,-0.08906 0.00207,-0.13494 0.01563,-0.16406c0.31056,-0.25508 0.43827,-0.67128 0.32422,-1.05664c-0.56714,-1.90064 -0.51093,-3.4518 0.08594,-4.43359c0.54826,-0.90186 1.71778,-1.49657 3.78711,-1.59766zM35.48242,40.06641c0.03691,0.05337 0.07222,0.11336 0.10938,0.16406c0.21924,0.29922 0.44599,0.5515 0.65625,0.75586c0.03518,0.03419 0.07296,0.05107 0.10547,0.08203v1.39063c-0.11361,0.26285 -0.32627,0.49253 -0.82812,0.76367c-0.00655,0.00383 -0.01307,0.00774 -0.01953,0.01172c-0.01809,-0.00965 -0.04491,-0.01963 -0.0625,-0.0293c-0.48284,-0.26533 -0.68622,-0.49063 -0.79687,-0.74609v-1.40039c0.03396,-0.03369 0.07618,-0.05443 0.11328,-0.0918c0.20678,-0.20825 0.42848,-0.46476 0.64258,-0.76367c0.02967,-0.04143 0.05273,-0.09213 0.08008,-0.13672z"></path>
        </g>
    </g>
</svg>
