<svg version="1.1" xmlns="http://www.w3.org/2000/svg" xmlns:xlink="http://www.w3.org/1999/xlink" width="50px" height="50px" viewBox="0,0,256,256">
    <g fill="#3F8A8C" fill-rule="nonzero" stroke="none" stroke-width="1" stroke-linecap="butt" stroke-linejoin="miter" stroke-miterlimit="10" stroke-dasharray="" stroke-dashoffset="0" font-family="none" font-weight="none" font-size="none" text-anchor="none" style="mix-blend-mode: normal">
        <g transform="scale(5.12,5.12)">
            <path d="M19.875,4.40625c-4.67187,0.08594 -7.65625,1.97266 -8.9375,4.90625c-1.22266,2.79297 -0.94922,6.32031 -0.0625,9.96875c-0.47656,0.55859 -0.85547,1.30859 -0.71875,2.4375c0.14844,1.23047 0.48828,2.10547 0.96875,2.71875c0.26563,0.33594 0.61328,0.36719 0.9375,0.53125c0.17578,1.04688 0.46875,2.09375 0.90625,2.96875c0.25,0.50391 0.53516,0.96875 0.8125,1.34375c0.125,0.16797 0.30469,0.26563 0.4375,0.40625c0.00781,1.23438 0.01172,2.26172 -0.09375,3.5625c-0.32422,0.78516 -1.08203,1.41797 -2.3125,2.03125c-1.26953,0.63281 -2.92187,1.21875 -4.59375,1.9375c-1.67187,0.71875 -3.39062,1.59375 -4.75,2.96875c-1.35937,1.375 -2.32031,3.26172 -2.46875,5.75l-0.0625,1.0625h40.125l-0.0625,-1.0625c-0.10547,-1.73047 -0.59375,-3.16406 -1.34375,-4.34375h11.40625l-0.0625,-1.0625c-0.12891,-2.12891 -0.96094,-3.78516 -2.125,-4.96875c-1.16406,-1.18359 -2.62109,-1.92187 -4.03125,-2.53125c-1.41016,-0.60937 -2.79297,-1.06641 -3.84375,-1.59375c-1.01562,-0.50781 -1.58984,-1.01953 -1.84375,-1.625c-0.08203,-1.05078 -0.10156,-1.90625 -0.09375,-2.90625c0.09766,-0.10937 0.25391,-0.1875 0.34375,-0.3125c0.23828,-0.32812 0.47656,-0.72656 0.6875,-1.15625c0.35547,-0.73047 0.59766,-1.59375 0.75,-2.46875c0.26172,-0.14453 0.53906,-0.16797 0.75,-0.4375c0.42969,-0.54687 0.71484,-1.28906 0.84375,-2.34375v-0.03125c0.10938,-0.91406 -0.1875,-1.52734 -0.5625,-2.03125c0.41406,-1.35547 0.92188,-3.49219 0.75,-5.71875c-0.09766,-1.22656 -0.40625,-2.46484 -1.15625,-3.5c-0.71094,-0.98437 -1.875,-1.70703 -3.34375,-1.96875c-0.95312,-1.05859 -2.45703,-1.53125 -4.21875,-1.53125c-2.42578,0.04297 -4.30859,0.64453 -5.6875,1.71875c-0.62891,-0.39062 -1.36328,-0.67578 -2.1875,-0.84375c-1.05078,-1.36328 -2.94141,-1.875 -5.125,-1.875zM19.90625,6.40625c0.01172,0 0.01953,0 0.03125,0c2.01172,0.00781 3.31641,0.59766 3.6875,1.25l0.25,0.40625l0.46875,0.0625c1.39063,0.19141 2.1875,0.75391 2.75,1.53125c0.5625,0.77734 0.875,1.86328 0.96875,3.0625c0.1875,2.39844 -0.50391,5.19141 -0.9375,6.5l-0.25,0.78125l0.6875,0.40625c-0.04297,-0.02734 0.38281,0.26172 0.28125,1.09375c-0.11719,0.98047 -0.35156,1.48828 -0.53125,1.71875c-0.17969,0.23047 -0.27344,0.21875 -0.28125,0.21875l-0.84375,0.0625l-0.09375,0.8125c-0.09375,0.86719 -0.44141,1.92188 -0.84375,2.75c-0.20312,0.41406 -0.41016,0.77734 -0.59375,1.03125c-0.18359,0.25391 -0.37891,0.39453 -0.28125,0.34375l-0.53125,0.28125v0.59375c0,1.44922 -0.05859,2.63672 0.09375,4.3125v0.125l0.0625,0.125c0.57031,1.53516 1.89063,2.49219 3.34375,3.21875c1.45313,0.72656 3.12109,1.26172 4.6875,1.9375c1.33984,0.57813 2.56641,1.26563 3.5625,2.125c0.00391,0.00391 -0.00391,0.02734 0,0.03125c0.04688,0.04688 0.10156,0.08984 0.15625,0.125c0.0625,0.07422 0.13672,0.13672 0.21875,0.1875c0.00391,0.00391 0.02734,-0.00391 0.03125,0c0.03125,0.03125 0.0625,0.0625 0.09375,0.09375c0.84375,0.85547 1.375,1.98828 1.65625,3.40625h-35.5c0.28125,-1.41406 0.80859,-2.55078 1.65625,-3.40625c1.06641,-1.07812 2.51953,-1.88672 4.09375,-2.5625c1.57422,-0.67578 3.23047,-1.21094 4.6875,-1.9375c1.45703,-0.72656 2.80469,-1.68359 3.375,-3.21875l0.0625,-0.25c0.15234,-1.67578 0.09375,-2.86328 0.09375,-4.3125v-0.59375l-0.53125,-0.28125c0.08984,0.04688 -0.125,-0.08984 -0.3125,-0.34375c-0.1875,-0.25391 -0.41797,-0.61719 -0.625,-1.03125c-0.41406,-0.82812 -0.75391,-1.89453 -0.84375,-2.75l-0.09375,-0.8125l-0.84375,-0.0625c-0.00781,0 -0.10156,0.01172 -0.28125,-0.21875c-0.17969,-0.23047 -0.41406,-0.73828 -0.53125,-1.71875c-0.09766,-0.83203 0.32422,-1.12109 0.28125,-1.09375l0.65625,-0.40625l-0.1875,-0.71875c-0.94141,-3.625 -1.10547,-6.91797 -0.125,-9.15625c0.97656,-2.23047 2.96875,-3.63281 7.125,-3.71875zM32.90625,7.40625c0.01172,0 0.01953,0 0.03125,0c1.66406,0.00781 2.70313,0.5 2.96875,0.96875l0.25,0.40625l0.46875,0.09375c1.13672,0.15625 1.76953,0.56641 2.21875,1.1875c0.44922,0.62109 0.70313,1.50781 0.78125,2.5c0.15625,1.98438 -0.42187,4.34766 -0.78125,5.4375l-0.25,0.75l0.6875,0.40625c-0.08984,-0.05469 0.26563,0.13672 0.1875,0.78125c-0.09766,0.80859 -0.30859,1.21094 -0.4375,1.375c-0.12891,0.16406 -0.16016,0.12891 -0.125,0.125l-0.84375,0.0625l-0.0625,0.8125c-0.07422,0.70313 -0.38672,1.56641 -0.71875,2.25c-0.16797,0.33984 -0.32031,0.64063 -0.46875,0.84375c-0.08984,0.12109 -0.15234,0.21094 -0.1875,0.25h-0.03125c-0.00391,0.00391 0,0.03125 0,0.03125l-0.53125,0.25v0.59375c0,1.21484 -0.03516,2.23438 0.09375,3.65625v0.125l0.0625,0.125c0.50391,1.34766 1.66797,2.16016 2.90625,2.78125c1.23828,0.62109 2.625,1.08984 3.9375,1.65625c1.3125,0.56641 2.50391,1.21094 3.375,2.09375c0.65625,0.66797 1.06641,1.55469 1.3125,2.625h-10.875c-1.23047,-1.04297 -2.65234,-1.76562 -4.0625,-2.375c-1.66406,-0.71875 -3.29687,-1.30469 -4.5625,-1.9375c-1.21484,-0.60937 -1.98047,-1.22656 -2.3125,-2c-0.10937,-1.31641 -0.10156,-2.34766 -0.09375,-3.59375c0.12891,-0.14062 0.31641,-0.23828 0.4375,-0.40625c0.27344,-0.37891 0.53516,-0.83984 0.78125,-1.34375c0.42578,-0.875 0.73438,-1.92578 0.90625,-2.96875c0.3125,-0.16406 0.64844,-0.20312 0.90625,-0.53125c0.48047,-0.61328 0.82031,-1.48828 0.96875,-2.71875c0.13281,-1.09375 -0.23437,-1.81641 -0.6875,-2.375c0.48828,-1.58594 1.11328,-4.14844 0.90625,-6.78125c-0.11328,-1.4375 -0.48047,-2.87109 -1.34375,-4.0625c-0.00391,-0.00781 0.00391,-0.02344 0,-0.03125c0.94141,-0.625 2.28125,-1.02344 4.1875,-1.0625z"></path>
        </g>
    </g>
</svg>
